<?xml version="1.0" encoding="UTF-8"?>
<svg xmlns="http://www.w3.org/2000/svg" xmlns:xlink="http://www.w3.org/1999/xlink" width="100px" height="118px" viewBox="0 0 100 117" version="1.1">
<g id="surface1">
<path style=" stroke:none;fill-rule:nonzero;fill:rgb(0%,0%,0%);fill-opacity:1;" d="M 45.453125 8.167969 C 45.453125 8.210938 45.636719 8.574219 45.839844 8.957031 C 46.347656 9.824219 46.410156 10.46875 46.671875 16.21875 C 46.875 20.292969 46.8125 28.988281 46.570312 31.367188 C 46.53125 31.8125 46.429688 33.082031 46.367188 34.191406 C 46.125 38.289062 45.738281 41.292969 44.824219 46.398438 C 44.238281 49.625 41.621094 62.65625 41.476562 63.039062 C 41.234375 63.644531 40.890625 63.382812 39.652344 61.726562 C 38.597656 60.296875 35.023438 56.664062 32.671875 54.625 C 31.839844 53.902344 30.378906 52.628906 29.421875 51.804688 C 28.46875 50.996094 27.152344 49.867188 26.480469 49.320312 C 25.8125 48.757812 25.140625 48.191406 24.980469 48.050781 C 24.511719 47.605469 21.875 45.871094 20.980469 45.429688 C 20.027344 44.945312 17.632812 44.117188 17.53125 44.238281 C 17.410156 44.359375 18.121094 45.890625 19.195312 47.828125 C 19.703125 48.757812 20.394531 49.96875 20.699219 50.53125 C 21.003906 51.078125 21.792969 52.527344 22.464844 53.757812 C 28.328125 64.390625 33.300781 77.421875 35.632812 88.253906 C 36.078125 90.371094 36.730469 93.640625 36.832031 94.207031 C 37.824219 100.921875 38.636719 104.976562 39.265625 106.410156 C 39.550781 107.015625 39.773438 107.640625 39.773438 107.78125 C 39.773438 107.921875 39.933594 108.246094 40.117188 108.507812 L 40.460938 108.992188 L 50.914062 98.5 C 63.371094 86.015625 64.285156 85.1875 69.296875 81.839844 C 71.835938 80.144531 74.453125 78.8125 77.71875 77.582031 C 78.773438 77.160156 80.398438 76.453125 81.332031 75.988281 C 82.976562 75.164062 83.015625 75.121094 82.914062 74.535156 C 82.832031 74.214844 82.589844 72.296875 82.367188 70.300781 C 81.738281 64.570312 81.757812 64.691406 81.167969 64.632812 C 79.445312 64.429688 72.769531 64.570312 70.496094 64.855469 C 66.316406 65.359375 61.203125 66.527344 58.5625 67.578125 C 58.015625 67.800781 57.347656 67.980469 57.082031 67.980469 C 56.59375 67.980469 56.574219 67.941406 56.714844 67.03125 C 57.164062 63.867188 58.867188 56.21875 59.902344 52.75 C 62.867188 42.644531 64.507812 38.769531 72.097656 23.882812 L 73.863281 20.433594 L 73.679688 19.144531 C 73.578125 18.4375 73.5 16.542969 73.476562 14.925781 C 73.4375 11.640625 73.234375 10.488281 72.667969 10.488281 C 72.464844 10.488281 71.429688 10.851562 70.332031 11.277344 C 64.226562 13.757812 61.101562 14.28125 56.617188 13.617188 C 53.753906 13.191406 52.597656 12.851562 50.324219 11.742188 C 48.882812 11.035156 48.050781 10.449219 46.996094 9.421875 C 45.65625 8.128906 45.453125 7.949219 45.453125 8.167969 Z M 47.929688 11.699219 C 51.296875 14.363281 58.097656 15.796875 63.777344 15.027344 C 66.191406 14.683594 68 14.160156 69.945312 13.171875 C 70.757812 12.769531 71.46875 12.488281 71.53125 12.546875 C 71.589844 12.609375 70.941406 13.636719 70.089844 14.847656 C 64.691406 22.492188 59.742188 32.882812 56.210938 43.875 C 55.519531 46.054688 54.078125 51.804688 53.390625 55.171875 C 52.027344 61.808594 51.765625 63.945312 51.726562 67.878906 C 51.703125 70.160156 51.746094 70.703125 51.96875 70.664062 C 52.128906 70.644531 53.589844 70.121094 55.234375 69.515625 C 60.9375 67.355469 66.640625 66.144531 72.972656 65.742188 C 76.398438 65.519531 77.660156 65.582031 77.433594 65.945312 C 77.375 66.042969 76.339844 66.691406 75.140625 67.375 C 69.339844 70.746094 63.921875 74.859375 54.6875 82.929688 C 46.105469 90.433594 42.023438 95.457031 40.097656 100.941406 C 39.246094 103.34375 39.125 103.183594 38.859375 99.148438 C 38.453125 93.074219 36.566406 84.964844 33.257812 75.34375 C 29.039062 62.976562 25.40625 55.152344 20.65625 48.191406 C 20.007812 47.222656 19.339844 46.335938 19.175781 46.195312 C 18.8125 45.890625 18.769531 45.386719 19.136719 45.386719 C 19.683594 45.386719 24.351562 48.816406 27.859375 51.804688 C 29.28125 53.011719 33.988281 57.773438 36.28125 60.316406 C 39.488281 63.886719 41.355469 65.703125 41.558594 65.460938 C 41.800781 65.195312 42.898438 62.210938 43.527344 60.113281 C 45.292969 54.34375 46.609375 45.507812 47.300781 35.222656 C 47.605469 30.761719 47.421875 19.425781 46.996094 14.726562 C 46.632812 10.871094 46.632812 10.894531 46.792969 10.894531 C 46.855469 10.894531 47.382812 11.257812 47.929688 11.699219 Z M 72.707031 14.160156 C 72.464844 16.945312 72.542969 18.941406 72.929688 19.871094 L 73.273438 20.65625 L 72.300781 22.089844 C 71.773438 22.855469 71.328125 23.542969 71.285156 23.582031 C 71.0625 23.882812 70.960938 23.300781 70.617188 19.96875 C 70.496094 18.800781 70.3125 17.488281 70.210938 17.046875 C 70.046875 16.339844 70.089844 16.117188 70.554688 15.332031 C 71.671875 13.453125 72.464844 12.304688 72.667969 12.304688 C 72.789062 12.304688 72.808594 12.949219 72.707031 14.160156 Z M 69.804688 17.691406 C 69.804688 18.679688 70.394531 24.226562 70.515625 24.410156 C 70.578125 24.53125 70.191406 25.417969 69.621094 26.386719 C 68.730469 27.917969 66.214844 33.003906 65.585938 34.535156 C 65.257812 35.320312 64.996094 35.242188 64.730469 34.234375 C 64.609375 33.769531 64.183594 32.4375 63.796875 31.289062 L 63.089844 29.167969 L 63.695312 27.917969 C 64.46875 26.324219 64.691406 26.183594 64.855469 27.234375 C 64.933594 27.675781 65.058594 28.039062 65.160156 28.039062 C 65.402344 28.039062 65.382812 27.132812 65.117188 26.222656 C 64.914062 25.597656 64.957031 25.375 65.320312 24.628906 C 65.5625 24.167969 65.847656 23.84375 65.929688 23.90625 C 66.03125 23.945312 66.171875 24.386719 66.234375 24.851562 C 66.316406 25.335938 66.519531 25.980469 66.679688 26.324219 L 66.964844 26.929688 L 66.863281 26.222656 C 66.316406 22.714844 66.316406 22.894531 67.003906 21.484375 C 67.371094 20.757812 67.753906 20.171875 67.878906 20.171875 C 68 20.171875 68.203125 21.039062 68.34375 22.128906 C 68.628906 24.449219 68.933594 25.617188 69.238281 25.617188 C 69.519531 25.617188 69.339844 23.058594 68.871094 20.738281 C 68.527344 19.042969 68.527344 18.941406 68.890625 18.15625 C 69.257812 17.328125 69.804688 17.066406 69.804688 17.691406 Z M 63.394531 31.671875 C 63.574219 32.398438 63.980469 33.75 64.265625 34.65625 L 64.792969 36.351562 L 64.183594 37.882812 C 63.839844 38.75 63.394531 39.882812 63.167969 40.425781 C 62.722656 41.617188 62.378906 41.796875 62.195312 40.992188 C 62.132812 40.667969 61.667969 39.335938 61.179688 38.046875 C 60.207031 35.484375 60.1875 35.726562 61.203125 33.546875 C 61.363281 33.203125 61.484375 32.882812 61.484375 32.820312 C 61.484375 32.457031 62.765625 30.035156 62.886719 30.179688 C 62.988281 30.277344 63.210938 30.945312 63.394531 31.671875 Z M 60.898438 38.972656 C 61.242188 40.121094 61.707031 41.375 61.933594 41.777344 L 62.335938 42.523438 L 61.910156 43.792969 C 61.667969 44.5 61.382812 45.265625 61.304688 45.488281 C 61.078125 45.972656 59.839844 49.925781 59.191406 52.207031 C 58.929688 53.132812 58.625 53.878906 58.523438 53.902344 C 58.238281 53.921875 57.0625 51.480469 56.617188 49.925781 C 56.25 48.617188 56.230469 48.472656 56.535156 47.324219 C 57 45.550781 57.144531 45.367188 57.445312 46.09375 C 58.179688 47.910156 59.070312 49.664062 59.171875 49.5625 C 59.394531 49.363281 58.867188 47.605469 58.117188 46.011719 C 57.445312 44.539062 57.425781 44.441406 57.648438 43.472656 C 57.953125 42.179688 58.402344 41.152344 58.625 41.152344 C 58.726562 41.152344 58.910156 41.574219 59.03125 42.078125 C 59.394531 43.472656 60.695312 45.832031 60.976562 45.570312 C 61.019531 45.507812 60.773438 44.742188 60.390625 43.855469 C 60.023438 42.988281 59.558594 41.617188 59.355469 40.808594 C 58.96875 39.335938 59.050781 38.589844 59.699219 37.257812 C 60.023438 36.59375 60.269531 36.914062 60.898438 38.972656 Z M 56.433594 51.277344 C 56.738281 52.429688 57.347656 53.597656 57.976562 54.222656 L 58.480469 54.726562 L 57.8125 57.613281 C 57.445312 59.207031 57.082031 60.515625 57.019531 60.515625 C 56.960938 60.515625 56.472656 60.074219 55.925781 59.507812 C 55.378906 58.964844 54.769531 58.460938 54.546875 58.378906 C 54.320312 58.320312 54.199219 58.136719 54.261719 57.996094 C 54.320312 57.835938 54.421875 57.1875 54.503906 56.523438 C 54.566406 55.855469 54.707031 55.191406 54.808594 55.050781 C 55.011719 54.746094 55.152344 54.890625 56.066406 56.179688 C 56.453125 56.703125 56.816406 56.847656 56.816406 56.460938 C 56.816406 56.339844 56.414062 55.636719 55.90625 54.890625 C 55.054688 53.617188 55.011719 53.496094 55.195312 52.75 C 55.863281 50.089844 56.046875 49.886719 56.433594 51.277344 Z M 55.113281 59.40625 C 55.398438 59.792969 55.964844 60.296875 56.351562 60.539062 C 56.898438 60.878906 57.019531 61.0625 56.941406 61.425781 C 56.878906 61.667969 56.59375 63.21875 56.3125 64.875 C 56.027344 66.527344 55.742188 68.019531 55.683594 68.203125 C 55.582031 68.546875 53.023438 69.734375 52.839844 69.535156 C 52.78125 69.472656 52.859375 68.527344 53.042969 67.4375 C 53.226562 66.347656 53.511719 64.148438 53.671875 62.535156 C 54.160156 58.175781 54.160156 58.175781 55.113281 59.40625 Z M 81.230469 68.425781 C 81.3125 69.675781 81.535156 71.511719 81.757812 72.519531 C 81.960938 73.507812 82.082031 74.394531 82 74.457031 C 81.839844 74.636719 79.058594 75.445312 78.632812 75.445312 C 78.367188 75.445312 78.328125 75.304688 78.449219 74.679688 C 78.53125 74.273438 78.773438 73.546875 78.996094 73.066406 C 79.222656 72.601562 79.34375 72.15625 79.28125 72.074219 C 79.019531 71.8125 78.550781 72.238281 78.125 73.125 C 77.78125 73.851562 77.699219 74.273438 77.78125 74.941406 L 77.902344 75.808594 L 76.5625 76.433594 C 75.832031 76.777344 75.164062 77.019531 75.101562 76.957031 C 75.039062 76.878906 75.183594 76.273438 75.425781 75.585938 C 75.914062 74.234375 77.3125 68.667969 77.3125 68.121094 C 77.3125 67.898438 77.921875 67.476562 79.097656 66.890625 C 80.074219 66.40625 80.925781 66.042969 80.984375 66.085938 C 81.046875 66.125 81.167969 67.175781 81.230469 68.425781 Z M 76.296875 68.726562 C 76.296875 68.828125 75.933594 70.300781 75.507812 72.015625 C 74.492188 76.070312 74.390625 76.636719 74.675781 76.957031 C 74.859375 77.160156 74.511719 77.441406 73.011719 78.289062 C 71.976562 78.855469 70.414062 79.78125 69.542969 80.328125 C 68.667969 80.851562 67.878906 81.253906 67.777344 81.195312 C 67.632812 81.113281 67.714844 80.710938 68.566406 77.359375 C 68.992188 75.6875 68.972656 75.324219 68.507812 75.96875 C 67.957031 76.675781 67.308594 78.953125 67.207031 80.449219 L 67.105469 81.898438 L 65.707031 82.929688 C 64.933594 83.492188 64.265625 83.917969 64.183594 83.855469 C 64 83.65625 64.527344 80.527344 65.136719 78.371094 C 65.441406 77.261719 65.765625 76.128906 65.828125 75.847656 C 65.992188 75.203125 68.566406 73.304688 74.980469 69.132812 C 75.792969 68.605469 76.296875 68.445312 76.296875 68.726562 Z M 64.933594 76.734375 C 64.933594 76.777344 64.773438 77.21875 64.550781 77.703125 C 63.980469 79.035156 63.3125 82.183594 63.3125 83.574219 L 63.3125 84.824219 L 61.910156 86.035156 C 61.140625 86.699219 58.988281 88.757812 57.101562 90.613281 C 54.992188 92.710938 53.652344 93.882812 53.613281 93.699219 C 53.570312 93.539062 53.773438 92.734375 54.058594 91.90625 C 54.726562 90.03125 55.722656 86.136719 55.90625 84.824219 C 56.027344 83.917969 56.148438 83.695312 57.285156 82.667969 C 57.996094 82.019531 58.625 81.597656 58.726562 81.699219 C 58.828125 81.800781 58.765625 82.242188 58.582031 82.746094 C 57.792969 84.988281 57.367188 86.742188 57.609375 86.742188 C 57.832031 86.742188 58.035156 86.136719 58.847656 83.109375 C 59.4375 80.832031 59.476562 80.769531 60.511719 79.84375 C 61.101562 79.316406 61.648438 78.894531 61.75 78.875 C 61.992188 78.875 61.910156 79.460938 61.503906 80.972656 C 60.957031 82.949219 60.816406 83.917969 61.058594 83.917969 C 61.242188 83.917969 61.648438 82.34375 62.15625 79.660156 C 62.378906 78.410156 62.460938 78.25 63.414062 77.480469 C 64.285156 76.777344 64.933594 76.453125 64.933594 76.734375 Z M 54.992188 85.1875 C 54.992188 85.347656 54.769531 86.097656 54.484375 86.863281 C 53.652344 89.203125 52.71875 92.832031 52.679688 94.003906 C 52.617188 95.050781 52.558594 95.152344 51.15625 96.667969 C 49.714844 98.21875 49.167969 98.582031 49.371094 97.875 C 50.304688 94.808594 51.582031 89.605469 51.625 88.757812 C 51.683594 87.667969 51.703125 87.628906 53.164062 86.296875 C 54.6875 84.90625 54.992188 84.722656 54.992188 85.1875 Z M 51.339844 88.617188 C 51.339844 88.757812 51.015625 89.867188 50.628906 91.078125 C 49.046875 95.941406 48.621094 97.433594 48.398438 98.84375 C 48.296875 99.410156 48.011719 100.015625 47.625 100.457031 C 45.960938 102.375 45.027344 103.324219 44.90625 103.203125 C 44.847656 103.140625 45.109375 102.050781 45.515625 100.820312 C 45.921875 99.570312 46.632812 97.050781 47.097656 95.214844 C 47.542969 93.378906 47.992188 91.785156 48.050781 91.644531 C 48.335938 91.179688 50.972656 88.355469 51.15625 88.355469 C 51.257812 88.355469 51.339844 88.476562 51.339844 88.617188 Z M 47.199219 93.296875 C 47.140625 93.480469 46.671875 94.910156 46.164062 96.484375 C 45.046875 100.035156 44.378906 102.796875 44.519531 103.363281 C 44.601562 103.667969 44.398438 104.027344 43.871094 104.613281 C 43.464844 105.058594 42.59375 106.027344 41.921875 106.773438 C 41.273438 107.519531 40.644531 108.0625 40.5625 108.003906 C 40.460938 107.941406 40.382812 107.660156 40.382812 107.359375 C 40.382812 107.054688 40.160156 106.410156 39.875 105.925781 C 39.589844 105.460938 39.367188 105.019531 39.367188 104.996094 C 39.367188 104.957031 39.570312 104.898438 39.8125 104.855469 C 40.179688 104.816406 40.460938 104.3125 41.292969 102.375 C 42.957031 98.542969 46.347656 93.035156 47.058594 93.015625 C 47.21875 92.996094 47.28125 93.117188 47.199219 93.296875 Z M 47.199219 93.296875 "/>
<path style=" stroke:none;fill-rule:nonzero;fill:rgb(0%,0%,0%);fill-opacity:1;" d="M 62.09375 35.726562 C 62.09375 36.128906 62.742188 38.226562 62.925781 38.410156 C 63.292969 38.8125 63.089844 37.117188 62.683594 36.308594 C 62.257812 35.484375 62.09375 35.34375 62.09375 35.726562 Z M 62.09375 35.726562 "/>
<path style=" stroke:none;fill-rule:nonzero;fill:rgb(0%,0%,0%);fill-opacity:1;" d="M 70.820312 76.171875 C 70.394531 77.140625 70.273438 78.773438 70.597656 78.976562 C 70.878906 79.136719 70.980469 78.894531 71.207031 77.542969 C 71.308594 76.898438 71.449219 76.109375 71.53125 75.789062 C 71.773438 74.878906 71.246094 75.140625 70.820312 76.171875 Z M 70.820312 76.171875 "/>
</g>
</svg>
