<svg xmlns="http://www.w3.org/2000/svg" xmlns:xlink="http://www.w3.org/1999/xlink" width="100px" height="118px" viewBox="0 0 100 117" version="1.1"><defs><style>.cls-1{fill-rule:evenodd;}</style></defs><title>IMGRecurso 1cat</title><g id="Capa_2" data-name="Capa 2"><g id="Capa_1-2" data-name="Capa 1"><path class="cls-1" d="M31,28.17a30.3,30.3,0,0,0-3.41,1.62A35.44,35.44,0,0,0,10,54.44a43.29,43.29,0,0,0-.79,11.15,46.59,46.59,0,0,0,2.1,10.94.58.58,0,0,0,.71.4.57.57,0,0,0,.39-.71,50.31,50.31,0,0,1-1.48-10.71,46.17,46.17,0,0,1,.83-10.72A33.63,33.63,0,0,1,28.53,31.54c.81-.44,1.62-.84,2.45-1.19a31.74,31.74,0,0,0,.54,5c2,10.21,9,18.43,19.85,18.27,6.65,0,10.3-4,11.15-8.76a15.17,15.17,0,0,0-5.18-13.62c-6.5-5.7-15.93-6.75-24.74-3.68a29,29,0,0,1,7.54-18.1A24.69,24.69,0,0,1,52.93,2.23a31.5,31.5,0,0,1,10.44-.4,35.42,35.42,0,0,1,4.51.69.22.22,0,0,0,.28-.13A.21.21,0,0,0,68,2.12,22.92,22.92,0,0,0,63.59.53a26.19,26.19,0,0,0-11,.12A25.78,25.78,0,0,0,39,8.36a30.63,30.63,0,0,0-8,19.81m1.56,1.54A29.28,29.28,0,0,0,33.09,35c1.84,9.38,8.27,17,18.24,16.76,5.47-.17,8.42-3.36,9.08-7.3A13.12,13.12,0,0,0,56,32.81c-6.11-5.41-15.09-6.19-23.4-3.1"/><path class="cls-1" d="M11.66,76.61c-1-1.69-2.54-4.23-2.7-4.51L6,67.3.69,59.75a.37.37,0,1,0-.63.4l4.37,8.06,2.69,5c.19.33,2.31,4,3.2,5.48a2.47,2.47,0,0,0,1.26,1.12A1.42,1.42,0,0,0,12.85,79a19.43,19.43,0,0,0,1.09-3.57l3.42-12c1.14-4.13,1.83-5.39.83-5.74-.2-.08-.42,0-.85.38a1.58,1.58,0,0,0-.3.55,36.78,36.78,0,0,0-1.33,4.28L11.89,74.83c0,.11-.09,1-.23,1.78"/></g></g></svg>