<?xml version="1.0" encoding="UTF-8"?>
<svg id="Capa_2" data-name="Capa 2" xmlns="http://www.w3.org/2000/svg" viewBox="0 0 212.88 201.98">
  <defs>
    <style>
      .cls-1 {
        fill: none;
      }
      .cls-2 {
        fill: none;
        opacity: .6;
      }
      /* Define la animación */
      @keyframes draw {
        from {
          stroke-dasharray: 0, 1000;
        }
        to {
          stroke-dasharray: 1000, 0;
        }
      }

      /* Aplica la animación a los trazos */
      .cls-1 {
        stroke: #000; /* Cambia esto si necesitas un color diferente */
        stroke-width: .8; /* Ajusta el grosor del trazo según sea necesario */
        fill: #000; /* Asegúrate de que el relleno esté desactivado para ver el trazo */
        stroke-dasharray: 1000;
        animation: draw 5s forwards;
      }
       .cls-2 {
        stroke: #fff; /* Cambia esto si necesitas un color diferente */
        stroke-width: .8; /* Ajusta el grosor del trazo según sea necesario */
        fill: #fff; /* Asegúrate de que el relleno esté desactivado para ver el trazo */
        stroke-dasharray: 1000;
        animation: draw 5s forwards;
      }
    </style>
  </defs>
  <g id="Capa_1-2" data-name="Capa 1">
    <g>
      <path class="cls-2" d="m82.06,0c3.41,0,6.58.75,9.51,2.24,2.93,1.49,5.49,3.63,7.67,6.41,2.18,2.78,3.89,6.13,5.11,10.05,1.23,3.92,1.84,8.3,1.84,13.14s-.61,9.21-1.84,13.1c-1.22,3.89-2.93,7.22-5.11,10-2.18,2.78-4.74,4.92-7.67,6.41-2.93,1.49-6.1,2.24-9.51,2.24s-6.49-.75-9.42-2.24c-2.93-1.49-5.47-3.63-7.62-6.41-2.15-2.78-3.86-6.11-5.11-10-1.26-3.89-1.88-8.25-1.88-13.1s.63-9.22,1.88-13.14c1.26-3.92,2.96-7.26,5.11-10.05,2.15-2.78,4.7-4.92,7.62-6.41,2.93-1.49,6.07-2.24,9.42-2.24m4.93,61.98c2.63-.42,4.84-1.52,6.64-3.32,1.79-1.79,3.18-4.14,4.17-7.04.99-2.9,1.54-6.25,1.66-10.05.12-3.8-.18-7.94-.9-12.42-.72-4.48-1.75-8.51-3.09-12.06-1.35-3.56-2.93-6.55-4.75-8.97-1.83-2.42-3.87-4.2-6.14-5.34-2.27-1.14-4.73-1.49-7.35-1.08-2.63.42-4.84,1.52-6.64,3.32-1.79,1.79-3.17,4.13-4.13,7-.96,2.87-1.51,6.22-1.66,10.04-.15,3.83.13,7.95.85,12.38.72,4.48,1.75,8.51,3.09,12.06,1.35,3.56,2.94,6.55,4.8,8.97,1.85,2.42,3.9,4.21,6.14,5.38,2.24,1.17,4.68,1.54,7.31,1.12"/>
      <path class="cls-2" d="m130.59.54c2.03-.06,4.14.18,6.32.72,2.18.54,4.16,1.36,5.92,2.47,1.76,1.11,3.18,2.56,4.26,4.35,1.08,1.79,1.52,3.92,1.35,6.37-.12,1.97-.64,3.72-1.57,5.25-.93,1.52-2.14,2.91-3.63,4.17-1.5,1.26-3.23,2.38-5.2,3.36-1.97.99-4.07,1.93-6.28,2.83,2.03-.3,4.18-.36,6.46-.18,2.69.24,5.01.87,6.95,1.88,1.94,1.02,3.5,2.35,4.66,3.99,1.17,1.64,1.88,3.56,2.15,5.74.27,2.18.1,4.56-.49,7.13-.54,2.21-1.54,4.26-3,6.14-1.47,1.88-3.24,3.53-5.34,4.93-2.09,1.4-4.45,2.5-7.09,3.27-2.63.78-5.41,1.16-8.34,1.16-1.86,0-3.81-.19-5.88-.58-2.07-.39-4.05-.99-5.96-1.79-1.91-.81-3.68-1.81-5.29-3-1.62-1.2-2.9-2.57-3.86-4.13l.63-.45c.78,1.2,1.84,2.35,3.18,3.45,1.35,1.11,2.93,2.06,4.75,2.87,1.82.81,3.89,1.41,6.19,1.79,2.3.39,4.83.46,7.58.22,4.06-.36,7.43-1.69,10.09-3.99,2.66-2.3,4.5-5.52,5.52-9.64.54-2.09.75-4.11.63-6.05-.12-1.94-.52-3.71-1.21-5.29-.69-1.58-1.67-2.92-2.96-3.99-1.29-1.08-2.82-1.82-4.62-2.24-1.26-.3-2.41-.45-3.45-.45s-2.09.1-3.14.31c-1.05.21-2.11.47-3.18.76-1.08.3-2.24.63-3.5.99l-.36-.81c2.27-.6,4.49-1.33,6.64-2.2,2.15-.87,4.1-1.93,5.83-3.18,1.73-1.25,3.21-2.73,4.44-4.44,1.23-1.7,2.08-3.69,2.56-5.96.42-2.27.42-4.32,0-6.14-.42-1.82-1.17-3.39-2.24-4.71-1.08-1.31-2.44-2.32-4.08-3.01-1.65-.69-3.45-1.03-5.43-1.03s-3.86.28-5.65.85c-1.79.57-3.38,1.41-4.75,2.51-1.38,1.11-2.46,2.48-3.27,4.13-.8,1.64-1.21,3.54-1.21,5.7h-.63c0-1.26.16-2.69.49-4.31.33-1.61,1.04-3.15,2.15-4.62,1.1-1.46,2.68-2.69,4.71-3.68,2.03-.98,4.75-1.48,8.16-1.48"/>
      <path class="cls-2" d="m82.97,68.92c3.41,0,6.58.75,9.51,2.24,2.93,1.49,5.49,3.63,7.67,6.41,2.18,2.78,3.89,6.13,5.11,10.04,1.23,3.92,1.84,8.3,1.84,13.14s-.61,9.21-1.84,13.09c-1.22,3.89-2.93,7.22-5.11,10-2.18,2.78-4.74,4.92-7.67,6.41-2.93,1.49-6.1,2.24-9.51,2.24s-6.49-.75-9.42-2.24c-2.93-1.49-5.47-3.63-7.62-6.41-2.15-2.78-3.86-6.11-5.11-10-1.26-3.89-1.88-8.25-1.88-13.09s.63-9.22,1.88-13.14c1.26-3.91,2.96-7.26,5.11-10.04,2.15-2.78,4.7-4.92,7.62-6.41,2.93-1.49,6.07-2.24,9.42-2.24m4.94,61.98c2.63-.42,4.84-1.52,6.64-3.32,1.79-1.79,3.18-4.14,4.17-7.04.98-2.9,1.54-6.25,1.66-10.05.12-3.8-.18-7.94-.9-12.42-.72-4.48-1.75-8.51-3.09-12.06-1.35-3.56-2.93-6.55-4.75-8.97-1.83-2.42-3.87-4.2-6.14-5.34-2.27-1.14-4.72-1.49-7.35-1.07-2.63.42-4.84,1.52-6.64,3.32-1.79,1.79-3.17,4.13-4.13,7s-1.51,6.22-1.66,10.04c-.15,3.83.13,7.95.85,12.38.72,4.48,1.75,8.51,3.09,12.06,1.35,3.56,2.94,6.55,4.8,8.97,1.85,2.42,3.9,4.21,6.14,5.38,2.24,1.17,4.68,1.54,7.31,1.12"/>
      <path class="cls-2" d="m134.36,94.58c2.69.3,5.14.91,7.35,1.84,2.21.93,4.08,2.18,5.61,3.77,1.52,1.58,2.63,3.45,3.32,5.61.69,2.15.85,4.6.49,7.35-.3,2.39-1.08,4.79-2.33,7.18-1.25,2.39-2.91,4.53-4.98,6.41-2.07,1.88-4.52,3.41-7.36,4.57-2.84,1.17-5.99,1.75-9.46,1.75-1.86,0-3.72-.2-5.61-.58-1.88-.39-3.68-.99-5.38-1.79-1.7-.81-3.29-1.81-4.75-3.01-1.46-1.2-2.67-2.57-3.63-4.13l.63-.45c.78,1.26,1.78,2.45,3.01,3.59,1.23,1.14,2.66,2.11,4.31,2.92,1.64.81,3.54,1.39,5.7,1.75,2.15.36,4.54.39,7.18.09,2.33-.24,4.42-.91,6.28-2.02,1.85-1.11,3.44-2.47,4.75-4.08,1.32-1.61,2.38-3.41,3.18-5.38.81-1.97,1.33-4.01,1.57-6.1.66-4.84-.03-8.83-2.06-11.97-2.03-3.14-5.23-4.98-9.6-5.52-3.35-.48-6.35-.3-9.02.54-2.66.84-5.13,2-7.4,3.5l-.54-.45,1.79-29.96h30.85v5.29l-30.23.09-1.43,23.77c2.09-1.43,4.68-2.65,7.76-3.63,3.08-.99,6.41-1.3,10-.94"/>
      <path class="cls-2" d="m80.14,138.39c2.03-.06,4.14.12,6.32.54,2.18.42,4.23,1.12,6.14,2.11,1.91.99,3.55,2.29,4.93,3.9,1.38,1.61,2.3,3.53,2.78,5.74.42,2.21.45,4.34.09,6.37-.36,2.03-1.11,4.05-2.24,6.05-1.13,2-2.63,4.05-4.48,6.14-1.86,2.09-4.04,4.31-6.55,6.64-3.65,3.53-7.1,6.83-10.36,9.91-3.26,3.08-6.74,6.14-10.45,9.19h25.74c.42,0,1.17-.07,2.24-.22,1.08-.15,2.21-.43,3.41-.85,1.19-.42,2.36-.97,3.5-1.66,1.14-.69,2-1.54,2.6-2.56l.18-.36.72.45-6.19,11.48h-.18l-.09.18h-36.95v-3.14c4.66-3.59,8.98-7.28,12.96-11.08,3.98-3.8,8.03-7.85,12.15-12.15,1.79-1.85,3.23-3.75,4.31-5.7,1.08-1.94,1.88-3.86,2.42-5.74.54-1.88.85-3.72.94-5.52.09-1.79.08-3.5-.05-5.11-.18-1.67-.61-3.33-1.3-4.98-.69-1.64-1.61-3.11-2.78-4.4-1.17-1.29-2.59-2.33-4.26-3.14-1.67-.81-3.53-1.21-5.56-1.21-2.75,0-5.08.51-7,1.53-1.92,1.02-3.45,2.23-4.62,3.63-1.17,1.41-2,2.86-2.51,4.35-.51,1.5-.76,2.72-.76,3.68h-.63c0-1.61.37-3.24,1.12-4.89.75-1.64,1.79-3.15,3.14-4.53,1.35-1.38,2.97-2.5,4.89-3.36,1.91-.87,4.04-1.3,6.37-1.3"/>
      <path class="cls-2" d="m131.98,163.5c2.69.3,5.14.91,7.35,1.84,2.21.93,4.08,2.18,5.61,3.77,1.52,1.59,2.63,3.45,3.32,5.61.69,2.15.85,4.6.49,7.35-.3,2.39-1.08,4.79-2.33,7.18-1.25,2.39-2.91,4.53-4.98,6.41-2.06,1.88-4.51,3.41-7.36,4.57-2.84,1.17-5.99,1.75-9.46,1.75-1.86,0-3.72-.2-5.61-.58-1.88-.39-3.68-.99-5.38-1.79-1.7-.81-3.29-1.81-4.75-3.01-1.47-1.2-2.68-2.57-3.63-4.12l.63-.45c.78,1.26,1.78,2.45,3.01,3.59,1.23,1.14,2.66,2.11,4.31,2.91,1.64.81,3.54,1.39,5.69,1.75,2.15.36,4.54.39,7.18.09,2.33-.24,4.42-.91,6.28-2.02,1.85-1.11,3.44-2.47,4.75-4.08,1.32-1.61,2.38-3.41,3.19-5.38.81-1.97,1.33-4.01,1.57-6.1.66-4.84-.03-8.84-2.06-11.97-2.03-3.14-5.23-4.98-9.6-5.52-3.35-.48-6.35-.3-9.02.54-2.66.84-5.13,2-7.4,3.5l-.54-.45,1.79-29.96h30.85v5.29l-30.22.09-1.44,23.77c2.09-1.44,4.68-2.65,7.76-3.63,3.08-.98,6.41-1.3,10-.94"/>
      <path class="cls-1" d="m10.09,93.33c-1.34.62-2.76.95-4.25.99-1.64.04-3.08-.48-4.31-1.57-.68-.62-1.14-1.38-1.37-2.28-.23-.9-.2-1.79.1-2.67.11-.34.26-.69.46-1.04.2-.35.55-.77,1.05-1.25.5-.48,1.09-.91,1.76-1.29.67-.38,1.57-.74,2.7-1.07,1.13-.33,2.4-.55,3.8-.65.23-.02.43.04.61.19.17.15.27.33.29.56.02.22-.04.43-.19.61-.15.18-.34.28-.58.3-2.21.19-4.05.65-5.52,1.39-1.47.73-2.4,1.67-2.78,2.79-.21.57-.24,1.15-.08,1.72.16.58.46,1.05.91,1.44.4.38.92.68,1.53.88.62.2,1.38.27,2.3.19.91-.07,1.87-.34,2.87-.78,1.51-.66,2.99-1.59,4.44-2.78,1.45-1.19,2.74-2.43,3.87-3.71,1.13-1.28,2.28-2.84,3.45-4.69,1.17-1.85,2.14-3.48,2.91-4.87.77-1.4,1.61-3.13,2.54-5.21.93-2.08,1.6-3.65,2.03-4.71.43-1.07.99-2.49,1.69-4.28l.03-.03c.94-2.41,1.56-3.93,1.89-4.57.21-.38.53-.52.96-.42.19.04.34.14.46.3.11.16.17.33.17.53-.15,5.24-1.35,14.33-3.61,27.28-.04.28.06.47.32.58.26.11.46.04.61-.19,2.83-4.11,6.15-9.33,9.95-15.67,3.8-6.33,6.14-10.34,7.01-12.03.08-.19.23-.32.43-.4.2-.08.41-.08.61,0,.2.07.35.21.45.4.1.19.11.39.05.61-.19.7-.53,1.92-1.02,3.64-.62,2.19-1.12,3.99-1.5,5.4-.38,1.41-.92,3.47-1.63,6.18-.7,2.71-1.22,5-1.55,6.85-.33,1.85-.62,3.78-.88,5.78-.26,2-.27,3.57-.05,4.7.22,1.13.65,1.8,1.29,2.01.23.06.4.2.51.4.11.2.12.42.05.64-.08.22-.21.39-.42.49-.2.11-.41.13-.62.06-.66-.19-1.19-.61-1.58-1.25-.39-.64-.67-1.42-.81-2.35-.15-.93-.19-2.07-.13-3.42.07-1.35.21-2.75.43-4.2.22-1.45.53-3.11.92-4.98.39-1.87.82-3.7,1.26-5.48.45-1.78.98-3.75,1.6-5.93.04-.19-.02-.32-.2-.4-.17-.08-.31-.03-.41.14-7.3,12.33-12.6,20.51-15.91,24.53-.28.32-.61.39-1.01.21-.39-.18-.55-.48-.46-.91,1.85-9.99,3.18-18.43,3.99-25.33.02-.19-.06-.31-.24-.35-.18-.04-.3.02-.37.19-.64,1.6-1.24,3.05-1.79,4.36-.55,1.31-1.26,2.85-2.12,4.63-.86,1.78-1.71,3.39-2.54,4.84-.83,1.45-1.81,2.98-2.92,4.6-1.12,1.62-2.24,3.04-3.37,4.26-1.13,1.23-2.4,2.38-3.8,3.47-1.41,1.09-2.83,1.95-4.28,2.59"/>
      <path class="cls-1" d="m73.81,85.2c.23.01.43.1.57.27.15.17.22.37.21.61-.01.23-.1.43-.27.58-.19.17-.44.39-.75.65-.31.27-.87.7-1.68,1.29-.81.6-1.63,1.14-2.46,1.63-.83.49-1.81.97-2.94,1.45-1.13.48-2.21.82-3.26,1.01-1.04.19-2.14.21-3.29.05-1.15-.16-2.2-.55-3.16-1.17-.89-.57-1.61-1.32-2.14-2.24-.15-.26-.38-.39-.69-.42-.31-.02-.55.1-.72.35-.75,1.15-1.56,2.12-2.45,2.91-.88.79-1.7,1.19-2.44,1.21h-.03c-.38-.02-.74-.14-1.07-.37-.33-.22-.57-.52-.72-.88-.64-1.6-.54-3.15.29-4.66.7-1.47,1.69-2.72,2.95-3.75,1.26-1.03,2.7-1.74,4.3-2.12.32-.08.59,0,.81.22.23.24.29.51.19.82-.1.31-.3.51-.62.59-1.34.32-2.54.91-3.61,1.77-1.07.86-1.9,1.92-2.49,3.18-.6,1.02-.7,2.09-.32,3.2.13.21.22.32.29.32.36.24,1.06-.43,2.11-1.98,1.04-1.55,1.98-3.24,2.81-5.05.17-.38.47-.54.89-.48.4.06.64.3.7.7.02.11.05.25.08.43.03.18.12.51.27.99.15.48.32.93.51,1.36.19.43.47.88.83,1.36.36.48.76.86,1.18,1.13.81.53,1.72.85,2.73.96,1.01.11,1.98.05,2.91-.16.93-.21,1.9-.55,2.92-1.01,1.02-.46,1.91-.92,2.65-1.39.74-.47,1.48-.97,2.2-1.5.73-.53,1.22-.91,1.49-1.13.27-.22.46-.4.59-.53.17-.15.37-.22.61-.21"/>
      <path class="cls-1" d="m100.44,84.58c.24,0,.43.09.59.26.16.17.24.37.24.59s-.09.42-.26.59c-2.07,2-4.61,3.54-7.63,4.62-3.02,1.08-5.79,1.61-8.31,1.61-1.21.06-2.38-.16-3.51-.67-.49-.28-.88-.58-1.18-.93-.3-.34-.49-.71-.58-1.1-.08-.39-.13-.75-.14-1.07-.01-.32.06-.69.21-1.1.15-.42.27-.73.37-.96.1-.22.23-.51.4-.85.06-.13.01-.2-.16-.22-.09,0-.2.04-.35.13-1.17.64-2.43.93-3.77.86-.6.02-1.18-.1-1.76-.35-.21.06-.42.04-.64-.06-.34-.17-.49-.45-.45-.83-.32-.38-.54-.82-.67-1.31-.26-.87-.23-1.74.06-2.59.3-.85.82-1.55,1.56-2.11.89-.53,1.6-.55,2.11-.06.7.66.47,2.31-.7,4.95-.04.11-.01.25.09.43.11.18.24.27.38.27,1.24,0,2.4-.31,3.48-.93.32-.19.58-.33.77-.4.19-.07.45-.11.77-.1.32.01.62.12.89.33.28.21.43.49.45.83.02.34-.02.63-.11.88-.09.25-.25.58-.46,1.01-.53.98-.79,1.76-.78,2.35.01.59.37,1.08,1.07,1.49.42.26,1.12.4,2.08.45.96.04,2.09-.04,3.38-.26,1.3-.21,2.64-.53,4.03-.96,1.38-.43,2.79-1.04,4.22-1.84,1.43-.8,2.66-1.71,3.71-2.73.17-.15.37-.22.61-.22m-26.03-1.5c.38-.81.68-1.65.9-2.52-.79.68-1.09,1.52-.9,2.52"/>
      <path class="cls-1" d="m126.03,84.98c.23.01.43.1.59.27.16.17.23.37.22.61,0,.23-.11.43-.3.58-2.6,2.17-5.49,3.84-8.69,5.02-3.19,1.17-6.49,1.77-9.9,1.79-1.66,0-3.31-.15-4.95-.45-.96-.17-1.77-.42-2.43-.75-.66-.33-1.15-.7-1.45-1.1-.31-.4-.52-.78-.64-1.13-.12-.35-.18-.71-.18-1.07,0-1.06.4-2.17,1.2-3.31.8-1.14,1.74-2.09,2.84-2.86,1.1-.77,2.12-1.24,3.05-1.44,1.3-.36,2.47-.14,3.51.67.87.83,1.31,1.85,1.31,3.07-.02.24-.11.43-.27.59-.16.16-.36.24-.59.24s-.43-.09-.59-.26c-.16-.17-.24-.37-.24-.61.02-.68-.21-1.27-.7-1.76-.66-.43-1.36-.52-2.11-.29-1.17.21-2.42.99-3.75,2.32-1.33,1.33-2,2.54-2,3.62.02,1.21,1.13,2.02,3.32,2.43,1.36.23,2.74.36,4.14.38,1.39.02,2.67-.05,3.83-.21,1.16-.16,2.32-.39,3.46-.69,1.15-.3,2.17-.63,3.07-.99.89-.36,1.76-.76,2.6-1.2.84-.44,1.54-.82,2.11-1.17.56-.34,1.09-.69,1.58-1.05.49-.36.82-.61.99-.75.17-.14.29-.24.35-.3.17-.15.37-.22.61-.21"/>
      <path class="cls-1" d="m69.3,132.85c-3.68,5.59-7.32,8.39-10.92,8.39-2.05,0-4.34-.51-6.88-1.52-2.54-1.02-4.91-2.27-7.11-3.78-2.21-1.5-4.21-3.13-6-4.87-1.8-1.74-3.09-3.33-3.88-4.77-1.03-1.88-1.18-3.39-.43-4.54.9-1.38,2.95-1.94,6.15-1.69,1.97.15,4.13.48,6.48.99,2.35.51,4.82,1.17,7.43,1.98,2.6.81,4.99,1.61,7.15,2.38,2.16.78,4.62,1.69,7.38,2.74.4.15.8.15,1.19,0,.39-.15.7-.42.91-.81.82-1.59,1.63-3.32,2.44-5.2,2.51-5.86,4.61-11.85,6.29-17.98.1-.35.32-.53.69-.55.36-.04.61.11.75.46.13.34.22,1.15.27,2.43.05,1.27.08,3.62.1,7.02.06,8.39.24,14.57.55,18.56.02.34.13.65.35.9.21.26.48.45.8.56,2.18.86,4.44,1.39,6.78,1.58.19,0,.36.07.52.22.15.14.23.32.24.52,0,.2-.06.38-.2.53-.14.15-.32.23-.53.23-2.11-.1-4.15-.52-6.12-1.27-.36-.11-.69-.04-.99.22s-.42.58-.36.96c.32,1.9.72,2.93,1.18,3.1.19.08.33.21.43.39.1.18.11.37.04.56-.07.19-.19.34-.37.43-.18.1-.37.12-.56.06-1.11-.36-1.91-2.3-2.38-5.8-.1-.65-.46-1.09-1.09-1.32-1.49-.56-3.57-1.35-6.23-2.38-.15-.04-.37-.09-.66-.16-.29-.07-.49-.11-.6-.13-.11-.02-.28-.04-.5-.07-.22-.03-.38-.03-.49,0-.1.03-.25.08-.43.14-.18.07-.34.16-.46.29s-.27.29-.43.49c-.16.2-.32.44-.47.7m-30.45-11.35c-1.88,0-3.05.35-3.51,1.06-.42.65-.26,1.66.49,3.02.78,1.46,2.07,3.02,3.85,4.7,1.78,1.68,3.73,3.21,5.84,4.6,2.12,1.39,4.34,2.55,6.68,3.48,2.34.93,4.39,1.39,6.17,1.39,3.16,0,6.43-2.66,9.83-7.99.29-.44.35-.91.19-1.42-.16-.51-.5-.86-.99-1.05-5.65-2.16-10.72-3.93-15.22-5.29-4.5-1.36-8.52-2.17-12.06-2.44-.44-.04-.86-.06-1.26-.06m40.36-11c-2.03,6.47-4.61,12.72-7.76,18.73l1.15.46c2.66,1.03,4.58,1.77,5.77,2.21.46.17.89.11,1.29-.19s.58-.69.55-1.19c-.23-3.7-.37-9.35-.43-16.98,0-1.32-.01-2.29-.03-2.9,0-.21-.03-.36-.1-.46-.07-.1-.14-.12-.23-.07s-.16.18-.22.39"/>
      <path class="cls-1" d="m116.62,134.2c.21,0,.39.07.55.2.15.13.23.31.24.52.01.21-.06.39-.22.55-.11.13-.28.31-.49.52-.21.21-.61.56-1.18,1.03-.57.48-1.16.93-1.75,1.35-.59.42-1.32.85-2.17,1.28-.85.43-1.69.77-2.51,1.01-.82.24-1.72.35-2.68.33-.97-.02-1.88-.2-2.74-.55-1.49-.75-2.65-1.85-3.48-3.3,0-.02-.04-.1-.13-.23-.08-.13-.16-.24-.23-.33s-.15-.19-.26-.3c-.11-.12-.22-.2-.35-.26-.12-.06-.25-.08-.39-.06-1.53.04-3.7,1.7-6.49,4.97-.25.29-.55.34-.9.17-.35-.17-.48-.45-.39-.83l1.43-6.32c.04-.19.15-.35.33-.46.18-.11.37-.15.57-.1.2.05.36.16.46.34.11.18.14.37.1.56l-.66,2.84c-.02.1.02.17.11.22.1.05.18.03.26-.04,2.13-2.01,3.92-2.97,5.37-2.87.61.04,1.13.29,1.55.75.33.34.61.72.86,1.12.65,1.19,1.57,2.1,2.76,2.73.59.25,1.22.39,1.87.43.65.04,1.27,0,1.85-.1.58-.1,1.18-.28,1.79-.52.61-.24,1.17-.5,1.68-.79.51-.29,1.02-.6,1.52-.95.51-.34.93-.66,1.28-.95.35-.29.68-.57,1.01-.86.33-.29.54-.49.65-.6.11-.11.19-.2.24-.26.14-.15.31-.23.52-.23"/>
      <path class="cls-1" d="m142.64,134.74c.21,0,.39.08.53.23.15.15.22.33.22.53s-.08.38-.23.53c-.88.86-1.87,1.65-2.96,2.36-1.09.71-2.17,1.28-3.23,1.71-1.06.43-2.14.79-3.24,1.06-1.1.28-2.09.41-2.97.4-.88-.01-1.68-.1-2.38-.27-1.03-.36-1.93-.93-2.69-1.71-.76-.78-1.3-1.68-1.62-2.71-.06-.17-.18-.27-.36-.29-.18-.02-.32.05-.42.2-2.3,3.26-4.2,4.88-5.72,4.88-.1,0-.19,0-.29-.03-.46-.06-.87-.23-1.22-.5-.35-.28-.61-.64-.76-1.08-.29-.96-.29-1.99-.02-3.1.28-1.11.67-1.97,1.16-2.59,1.36-1.57,2.7-2.16,4.02-1.78.5.15.93.43,1.31.82.37.39.64.85.79,1.36.02.19-.03.37-.16.55-.12.17-.28.27-.47.29-.21.04-.4,0-.56-.13-.16-.12-.26-.28-.3-.47-.21-.5-.58-.82-1.12-.98-.67-.15-1.46.29-2.36,1.32-.86,1.28-1.16,2.68-.89,4.19.11.38.37.58.77.6.42.06,1.07-.31,1.94-1.09s1.89-2.04,3.06-3.76c.19-.29.38-.58.57-.89.21-.35.3-.72.26-1.12-.08-1.24-.06-2.49.06-3.73.17-1.99.56-3.94,1.16-5.86.6-1.92,1.38-3.54,2.33-4.87.95-1.33,1.94-2.06,2.97-2.2.57-.1,1.01.1,1.32.6.4.65.35,1.93-.17,3.83-.52,1.9-1.29,3.96-2.31,6.15-1.03,2.19-2.14,4.31-3.35,6.36-.25.42-.33.87-.23,1.35.56,2.68,1.8,4.33,3.74,4.94.57.13,1.23.21,1.97.22.74.01,1.6-.11,2.58-.36.99-.25,1.96-.57,2.93-.95.97-.38,1.97-.91,3-1.58,1.03-.67,1.97-1.42,2.82-2.24.13-.13.31-.2.52-.2m-17.78-5.06c-.04.52,0,.78.11.78.07,0,.17-.11.29-.32,2.85-5.05,4.41-8.8,4.68-11.23.02-.21-.06-.36-.23-.46-.17-.1-.33-.09-.49.03-.96.69-1.87,2.1-2.73,4.22-.86,2.12-1.41,4.45-1.64,6.98"/>
      <path class="cls-1" d="m166.36,133.76c.21,0,.39.08.53.23.15.15.22.33.22.53s-.08.38-.23.53c-1.86,1.8-4.15,3.18-6.86,4.15-2.72.97-5.21,1.45-7.47,1.45-1.09.06-2.14-.14-3.16-.6-.44-.25-.79-.53-1.06-.83-.27-.31-.44-.64-.52-.99-.08-.35-.12-.67-.13-.96-.01-.29.05-.62.19-.99.13-.37.24-.66.33-.86.09-.2.21-.45.36-.76.06-.12,0-.18-.14-.2-.08,0-.18.04-.32.12-1.05.57-2.18.83-3.39.78-.54.02-1.07-.09-1.58-.32-.19.06-.38.04-.58-.06-.31-.15-.44-.4-.4-.75-.29-.35-.49-.74-.6-1.18-.23-.79-.21-1.56.05-2.33.27-.77.74-1.4,1.41-1.9.8-.48,1.43-.5,1.9-.06.63.59.42,2.08-.63,4.45-.04.1,0,.23.09.39.1.16.21.24.35.24,1.11,0,2.15-.28,3.13-.83.29-.17.51-.29.69-.36.17-.07.4-.1.69-.09.29,0,.55.11.8.3.25.19.38.44.4.75.02.31-.01.57-.1.79-.09.22-.23.52-.42.9-.48.88-.72,1.59-.7,2.11,0,.53.33.97.96,1.34.38.23,1.01.36,1.87.4.86.04,1.88-.04,3.04-.23,1.17-.19,2.38-.48,3.62-.86,1.24-.38,2.51-.93,3.79-1.65,1.28-.72,2.39-1.54,3.33-2.46.15-.13.34-.2.55-.2m-23.41-1.35c.34-.73.61-1.48.8-2.27-.71.61-.98,1.37-.8,2.27"/>
      <path class="cls-1" d="m189.27,133.88c.2.02.37.11.5.27.13.16.19.35.17.56-.02.21-.11.38-.29.52-.29.23-.64.5-1.06.8-.42.31-1.23.82-2.44,1.54-1.21.72-2.41,1.35-3.61,1.88-1.2.54-2.64,1.02-4.32,1.46-1.68.44-3.29.66-4.82.66-1.95.02-3.83-.33-5.63-1.06-.57-.23-1.06-.5-1.45-.82-.39-.32-.68-.62-.88-.92-.19-.3-.33-.61-.42-.95-.09-.34-.12-.63-.12-.88.01-.25.04-.5.1-.75.21-.9.71-1.79,1.49-2.67.78-.88,1.66-1.57,2.63-2.07.97-.5,1.83-.73,2.6-.69.52,0,.96.18,1.34.55.37.36.58.82.62,1.35.1.92-.42,1.75-1.55,2.5-1.63,1.02-3.41,1.47-5.34,1.35-.1-.02-.18,0-.26.06-.08.06-.11.13-.09.23-.14.98.5,1.74,1.9,2.3,1.24.52,2.59.82,4.02.9,1.44.09,2.77.01,4.02-.22,1.24-.23,2.52-.58,3.82-1.06,1.3-.48,2.42-.96,3.35-1.45.93-.49,1.83-1.01,2.7-1.55.87-.54,1.47-.93,1.78-1.16.31-.23.54-.4.67-.52.17-.13.36-.19.56-.17m-21.82.89c-.25.35-.15.5.31.46.81-.06,1.83-.4,3.08-1.03.19-.12.35-.21.49-.29.59-.4.87-.76.83-1.09-.02-.21-.07-.35-.14-.42-.08-.07-.2-.11-.38-.13-.61-.04-1.33.18-2.14.66-.82.48-1.5,1.09-2.05,1.84"/>
      <path class="cls-1" d="m212.17,134.33c.21.01.38.09.52.24.13.15.2.33.19.55-.01.21-.09.38-.24.52-.17.15-.4.35-.67.59-.28.24-.78.63-1.51,1.16-.73.54-1.46,1.02-2.21,1.46-.75.44-1.62.88-2.64,1.31-1.02.43-1.99.73-2.93.9-.94.17-1.93.19-2.96.04-1.03-.14-1.98-.49-2.84-1.05-.8-.52-1.45-1.19-1.92-2.01-.13-.23-.34-.35-.62-.37-.28-.02-.49.09-.65.32-.67,1.03-1.4,1.91-2.2,2.61-.79.71-1.53,1.07-2.2,1.09h-.03c-.35-.02-.66-.13-.96-.33-.3-.2-.51-.46-.65-.79-.57-1.44-.49-2.83.26-4.19.63-1.32,1.52-2.45,2.66-3.38,1.14-.93,2.43-1.57,3.86-1.91.29-.08.53,0,.73.2.2.21.26.45.17.73-.09.28-.27.45-.56.53-1.21.29-2.29.82-3.24,1.6-.96.78-1.71,1.73-2.24,2.86-.54.92-.63,1.88-.29,2.87.12.19.2.29.26.29.32.21.96-.38,1.9-1.78.94-1.4,1.78-2.91,2.53-4.54.15-.34.42-.49.81-.43.36.06.57.27.63.63.02.1.04.23.07.39.03.16.11.46.24.89.13.43.29.84.46,1.22.17.38.42.79.75,1.22.33.43.68.77,1.06,1.02.73.48,1.55.77,2.46.86.91.1,1.78.05,2.61-.14.83-.19,1.71-.49,2.63-.9.92-.41,1.71-.83,2.38-1.25.67-.42,1.33-.87,1.98-1.35.65-.48,1.1-.82,1.34-1.02.24-.2.42-.36.53-.47.15-.13.33-.2.55-.19"/>
      <path class="cls-1" d="m138.1,90.01c.05-1.61.51-3.14,1.02-4.65.22-.66.17-1.23-.12-1.85-.87-1.81-1.47-3.7-1.66-5.71-.32-3.44,1.39-6.21,4.65-7.45.41-.15.83-.32,1.25-.35.91-.06,1.61.59,1.77,1.54.17,1.04,0,2.05-.33,3.02-.8,2.43-1.67,4.83-2.52,7.24-.22.61-.45,1.23-.68,1.83-.18.48-.14.93.13,1.35.75,1.14,1.5,2.28,2.27,3.41.28.42.75.5,1.1.19.98-.88,1.86-1.85,2.33-3.11.37-.98.16-1.54-.74-2.08-.34-.2-.57-.47-.52-.89.05-.35.25-.61.59-.68.19-.04.42-.02.6.05,1.41.54,2.16,2.07,1.78,3.61-.33,1.35-1.12,2.42-2.03,3.43-.24.27-.52.52-.77.79-.44.47-.46.98-.01,1.43.35.35.72.68,1.09,1,.43.37.52.85.2,1.24-.32.39-.81.43-1.24.04-.59-.52-1.16-1.07-1.72-1.64-.25-.26-.47-.3-.79-.16-.82.37-1.64.79-2.49,1.06-.87.28-1.75.27-2.48-.44-.55-.54-.67-1.23-.7-1.96,0-.09,0-.18,0-.28m5.54-17.69c.04-.6-.3-.79-.87-.68-.2.04-.4.1-.59.18-.71.33-1.27.87-1.76,1.46-.67.8-1.23,1.67-1.35,2.73-.21,1.88.05,3.7.82,5.44.06.13.15.33.3.33.16,0,.28-.21.33-.35.83-2.21,1.67-4.41,2.46-6.63.29-.8.6-1.63.66-2.48m-3.92,17.81s-.03,0,0,0c0,.06,0,.11,0,.17.02.74.31,1.03,1.01.82.67-.2,1.31-.52,1.95-.82.27-.12.29-.37.13-.61-.61-.88-1.22-1.77-1.85-2.64-.2-.28-.54-.23-.63.1-.25.98-.38,1.99-.61,2.98"/>
    </g>
  </g>
</svg>