<?xml version="1.0" standalone="no"?>
<!DOCTYPE svg PUBLIC "-//W3C//DTD SVG 20010904//EN"
 "http://www.w3.org/TR/2001/REC-SVG-20010904/DTD/svg10.dtd">
<svg version="1.0" xmlns="http://www.w3.org/2000/svg"
 width="512.000000pt" height="512.000000pt" viewBox="0 0 512.000000 512.000000"
 preserveAspectRatio="xMidYMid meet">

<g transform="translate(0.000000,512.000000) scale(0.100000,-0.100000)"
fill="#000000" stroke="none">
<path d="M2370 5114 c-19 -2 -78 -9 -130 -15 -788 -90 -1517 -582 -1919 -1296
-375 -667 -423 -1512 -124 -2228 107 -256 283 -534 458 -722 76 -83 106 -92
150 -48 40 39 33 65 -48 157 -247 283 -415 589 -512 933 -290 1022 108 2094
995 2680 812 536 1891 523 2689 -33 839 -584 1217 -1607 960 -2600 -39 -150
-88 -280 -164 -437 -122 -251 -255 -435 -465 -645 -193 -193 -357 -316 -581
-434 -819 -432 -1826 -349 -2572 213 -118 89 -148 98 -185 58 -24 -25 -28 -57
-12 -87 5 -10 53 -51 105 -90 388 -292 838 -464 1330 -510 926 -86 1838 361
2361 1156 550 834 550 1954 0 2788 -411 626 -1048 1032 -1788 1142 -98 14
-474 27 -548 18z"/>
<path d="M2350 4698 c-638 -60 -1224 -415 -1588 -963 -252 -380 -380 -872
-344 -1327 15 -193 50 -366 108 -537 109 -323 268 -577 518 -827 248 -248 511
-412 830 -519 702 -234 1464 -97 2042 368 186 150 386 387 512 608 373 650
372 1471 -3 2124 -61 107 -154 241 -194 281 -40 40 -99 27 -119 -27 -13 -32
-3 -54 60 -141 196 -268 324 -582 369 -908 22 -155 17 -441 -10 -595 -192
-1098 -1215 -1828 -2305 -1644 -805 137 -1452 759 -1621 1559 -73 349 -50 720
66 1057 319 925 1260 1485 2222 1322 359 -61 664 -203 956 -443 67 -56 112
-86 128 -86 33 0 73 42 73 77 0 34 -83 116 -222 216 -428 312 -950 455 -1478
405z"/>
<path d="M2517 4428 c-28 -22 -37 -65 -37 -179 0 -127 14 -175 54 -185 44 -11
76 4 92 41 17 42 19 237 3 284 -17 48 -73 68 -112 39z"/>
<path d="M1375 3729 c-82 -24 -148 -117 -149 -209 -2 -102 14 -121 278 -357
132 -117 250 -216 263 -219 46 -12 99 46 86 94 -3 12 -110 114 -238 228 -137
121 -236 216 -239 230 -13 51 28 98 81 92 17 -2 167 -129 453 -383 236 -209
429 -384 429 -389 1 -4 -11 -23 -26 -40 -16 -17 -35 -42 -44 -56 l-16 -24
-108 97 c-90 81 -114 97 -141 97 -50 0 -87 -55 -68 -103 3 -8 69 -71 148 -141
121 -107 145 -132 155 -168 32 -106 109 -191 207 -227 97 -37 164 -29 309 35
6 2 195 -151 420 -341 226 -190 420 -348 433 -351 51 -14 101 37 88 90 -4 18
-131 130 -419 372 -251 211 -412 353 -411 363 1 9 8 40 16 69 13 49 31 70 266
312 150 154 259 273 267 294 19 46 19 127 -1 174 -34 82 -113 134 -204 135
-96 1 -122 -19 -374 -278 l-228 -236 -63 3 -63 3 -442 395 c-243 217 -464 407
-492 423 -53 28 -112 34 -173 16z m1890 -502 c8 -12 15 -35 15 -51 0 -26 -31
-61 -212 -242 l-213 -213 -49 56 -49 55 204 205 c112 112 213 208 223 212 29
11 65 1 81 -22z m-599 -523 c56 -45 76 -88 71 -156 -6 -104 -85 -172 -189
-165 -104 6 -172 85 -165 189 4 66 37 117 97 150 53 29 138 21 186 -18z"/>
<path d="M723 2625 c-35 -15 -49 -48 -39 -91 10 -40 58 -54 186 -54 128 0 176
14 186 54 11 44 -4 76 -41 92 -46 19 -247 19 -292 -1z"/>
<path d="M4103 2625 c-35 -15 -49 -48 -39 -91 10 -40 58 -54 186 -54 128 0
176 14 186 54 11 44 -4 76 -41 92 -46 19 -247 19 -292 -1z"/>
<path d="M2517 1048 c-28 -22 -37 -65 -37 -179 0 -127 14 -175 54 -185 44 -11
76 4 92 41 17 42 19 237 3 284 -17 48 -73 68 -112 39z"/>
</g>
</svg>
